<svg width="1500" height="1500" viewBox="0 0 1500 1500" fill="none" xmlns="http://www.w3.org/2000/svg">
<g clip-path="url(#clip0_542_107)">
<path d="M1107.04 577.442L1098.16 567.924M1098.16 567.924C1135.93 536.591 1169.85 513.937 1200.65 493.372C1274.79 443.879 1334.58 403.883 1347.15 294.418L1448.68 278.191L1390.96 207.456L1408.37 115.668L1321.08 151.022L1239.48 109.258L1243.26 201.848L1175.41 267.821L1268.94 289.981C1260.81 360.353 1227.95 382.328 1158.56 428.653C1126.5 450.055 1088.3 475.589 1045.5 511.444M1098.16 567.924L1062.53 542.44L1045.5 511.444M1045.5 511.444L1038 503.41M275.475 1091.72C245.2 1119.95 243.828 1167.69 271.061 1196.9L340.097 1270.93C367.33 1300.13 412.859 1299.75 443.134 1271.51L602.824 1141.98L501.025 1089.98L438.958 1057.49L413.022 1009.3L394.523 976.939L275.475 1091.72Z" stroke="#AF49EA" stroke-width="34.5978"/>
<path d="M1063.19 437.969C1050.71 437.969 1038.93 440.048 1027.16 444.899L891.315 499.649C839.337 480.937 783.894 471.235 726.372 471.235C669.543 471.235 614.1 480.937 561.429 499.649L425.594 444.899C413.812 440.048 402.031 437.969 389.556 437.969C336.192 437.969 293.224 480.937 293.224 534.301L293.917 869.731C293.917 872.496 293.917 875.275 293.917 877.361C309.164 1076.26 499.056 1232.19 725.679 1232.19C952.995 1232.19 1142.89 1076.26 1157.44 877.361C1157.44 874.589 1157.44 872.503 1157.44 869.731L1158.13 533.608C1159.52 480.93 1116.55 437.969 1063.19 437.969ZM1047.94 869.031C1037.55 1010.41 896.166 1121.3 726.372 1121.3C557.271 1121.3 415.891 1010.41 404.803 869.031L404.11 555.085L524.698 604.291C546.875 613.3 572.518 613.993 594.695 605.677C636.277 590.43 679.938 582.113 725.679 582.113C771.419 582.113 815.774 589.737 857.356 605.677C879.526 613.993 905.169 613.993 927.353 604.291L1047.94 555.085V869.031Z" fill="#AF49EA"/>
<path d="M586.379 946.658C624.654 946.658 655.683 915.63 655.683 877.354C655.683 839.079 624.654 808.051 586.379 808.051C548.104 808.051 517.075 839.079 517.075 877.354C517.075 915.63 548.104 946.658 586.379 946.658Z" fill="#AF49EA"/>
<path d="M866.366 946.658C904.641 946.658 935.669 915.63 935.669 877.354C935.669 839.079 904.641 808.051 866.366 808.051C828.09 808.051 797.062 839.079 797.062 877.354C797.062 915.63 828.09 946.658 866.366 946.658Z" fill="#AF49EA"/>
</g>
<defs>
<clipPath id="clip0_542_107">
<rect width="1500" height="1500" fill="white"/>
</clipPath>
</defs>
</svg>
